<?xml version="1.0" encoding="utf-8"?>
<!-- Generator: Adobe Illustrator 28.2.0, SVG Export Plug-In . SVG Version: 6.00 Build 0)  -->
<svg version="1.1" id="Capa_1" xmlns="http://www.w3.org/2000/svg" xmlns:xlink="http://www.w3.org/1999/xlink" x="0px" y="0px"
	 viewBox="0 0 425.2 425.2" style="enable-background:new 0 0 425.2 425.2;" xml:space="preserve">
<style type="text/css">
	.st0{fill:none;stroke:#009045;stroke-width:10;stroke-miterlimit:10;}
	.st1{fill:none;stroke:#BF0811;stroke-width:10;stroke-miterlimit:10;}
	.st2{fill:none;stroke:#000000;stroke-width:10;stroke-miterlimit:10;}
</style>
<path class="st0" d="M406.82,127.39c0,107.07-86.8,193.86-193.86,193.86S19.1,234.45,19.1,127.39c0-7.82,1.36-23.1,1.36-23.1
	l385.35,3.13C405.81,107.41,406.82,120.64,406.82,127.39z"/>
<path class="st1" d="M375.46,123.65c0,89.75-72.75,162.5-162.5,162.5s-162.5-72.75-162.5-162.5c0-6.55,1.14-19.36,1.14-19.36
	l323.01,2.62C374.61,106.9,375.46,117.99,375.46,123.65z"/>
<g>
	<path class="st2" d="M226.46,184.15c0,14.64-13.5,26.5-13.5,26.5s-13.5-11.86-13.5-26.5s13.5-26.5,13.5-26.5
		S226.46,169.51,226.46,184.15z"/>
	<path class="st2" d="M144.96,169.65c-10.35,10.35-28.28,9.19-28.28,9.19s-1.16-17.94,9.19-28.28s28.28-9.19,28.28-9.19
		S155.31,159.3,144.96,169.65z"/>
	<path class="st2" d="M299.6,150.56c10.35,10.35,9.19,28.28,9.19,28.28s-17.94,1.16-28.28-9.19c-10.35-10.35-9.19-28.28-9.19-28.28
		S289.26,140.21,299.6,150.56z"/>
</g>
</svg>
